:SAMPLES-PER-SECOND 30
:FULLY-SPECIFIED
:DEGREES
63
root  45.6196 39.6139 -2.17236 -0.0116924 -88.6335 -3.19181
RightUpLeg  6.59627 -8.58071 -1.95663
RightLeg  13.0403 -0.932581 3.56194
RightFoot  -15.1246 -0.186359 -2.54257
RightToes  1.74622e-010 0 -3.6325e-017
Spine  5.87334 0.940029 12.7466
Spine1  11.077 3.71768 -7.57906
HEad  -2.44848 -1.1908 -3.07168
LeftShoulder1  9.08346 -12.9111 -48.3061
LeftArm  -6.31788 15.2484 -26.438
LeftForeArm  24.2502 -28.6547 -4.87526
LeftHand  -0.244104 0.0205437 5.32207
RightShoulder  6.26724 10.2877 39.3395
RightArm  7.62521 12.61 30.5007
RightForeArm  -9.41486 22.5122 5.45499
RightHand  -0.798036 0.678296 -15.3283
LeftUpLeg  -22.3419 11.2142 -2.29517
LeftLeg  21.0296 1.65222 0.787815
LeftFoot  1.02313 0.503196 -4.71037
LeftToes  1.00041e-010 1.90862e-010 2.54823e-011
64
root  44.2666 39.5179 -2.22155 -5.81439 -89.9632 2.58775
RightUpLeg  9.67015 -8.53675 -2.59905
RightLeg  11.3825 0.553834 3.81461
RightFoot  -16.0702 -0.198469 -2.1856
RightToes  1.74622e-010 0 -3.6325e-017
Spine  5.61109 1.15603 12.2667
Spine1  11.6964 4.04307 -8.17676
HEad  -2.9483 -0.183141 -3.55424
LeftShoulder1  9.03809 -12.8778 -48.161
LeftArm  -6.61272 15.764 -26.5891
LeftForeArm  23.6397 -27.8645 -4.72993
LeftHand  -0.244104 0.0205437 5.32207
RightShoulder  6.3314 10.4539 39.2612
RightArm  8.17361 14.6716 30.816
RightForeArm  -8.97527 23.5179 5.48176
RightHand  -0.831262 0.902958 -15.4082
LeftUpLeg  -20.3564 9.87007 -1.67052
LeftLeg  8.0021 4.50177 -2.05509
LeftFoot  1.99419 0.447186 -3.92311
LeftToes  1.00041e-010 1.90862e-010 2.54823e-011
65
root  42.8111 39.2798 -2.24035 178.641 -88.82 177.943
RightUpLeg  12.3757 -8.85298 -3.26822
RightLeg  11.2024 2.37593 3.91955
RightFoot  -17.5716 -0.204569 -1.57981
RightToes  1.74622e-010 0 -3.6325e-017
Spine  5.46953 1.21789 11.7734
Spine1  12.086 4.15189 -8.41452
HEad  -3.38703 0.925224 -3.88429
LeftShoulder1  8.98292 -12.825 -48.0199
LeftArm  -6.37576 16.5312 -26.7432
LeftForeArm  22.576 -26.5407 -4.49234
LeftHand  -0.244104 0.0205437 5.32207
RightShoulder  6.42539 10.6122 39.4112
RightArm  8.80626 16.0328 31.2094
RightForeArm  -8.31288 24.2093 5.59054
RightHand  -0.871371 1.23482 -15.3591
LeftUpLeg  -18.2539 1.9853 1.81267
LeftLeg  -1.99758 13.6277 -5.98758
LeftFoot  1.85167 0.439874 -3.89691
LeftToes  1.00041e-010 1.90862e-010 2.54823e-011
66
root  41.2449 38.9697 -2.20749 170.36 -87.8703 -173.917
RightUpLeg  14.5911 -9.57716 -4.00225
RightLeg  12.337 4.35217 3.8834
RightFoot  -18.8194 -0.18837 -0.927134
RightToes  1.74622e-010 0 -3.6325e-017
Spine  4.99949 1.14399 11.5421
Spine1  12.6568 4.15743 -8.67523
HEad  -3.98568 1.87642 -3.92492
LeftShoulder1  8.94716 -12.8034 -47.8906
LeftArm  -5.5774 17.2907 -26.8371
LeftForeArm  21.5784 -24.7719 -4.15443
LeftHand  -0.244104 0.0205437 5.32207
RightShoulder  6.47107 10.6844 39.4971
RightArm  9.19201 16.4367 31.9749
RightForeArm  -7.34302 24.8553 5.69231
RightHand  -0.882609 1.36686 -15.2605
LeftUpLeg  -18.0732 2.52826 1.4725
LeftLeg  -4.30726 14.3223 -6.58254
LeftFoot  1.25761 0.351327 -3.24053
LeftToes  1.00041e-010 1.90862e-010 2.54823e-011
67
root  39.5847 38.6989 -2.14666 176.653 -87.1042 179.694
RightUpLeg  16.7002 -10.4155 -5.31529
RightLeg  13.8651 6.29941 3.50404
RightFoot  -19.3029 -0.125961 0.0462669
RightToes  1.74622e-010 0 -3.6325e-017
Spine  4.25056 1.13756 10.4922
Spine1  13.4289 4.15386 -8.59564
HEad  -4.36625 2.5342 -3.82205
LeftShoulder1  8.93611 -12.785 -47.8852
LeftArm  -4.45192 18.0134 -26.833
LeftForeArm  21.1575 -22.4679 -3.85738
LeftHand  -0.244104 0.0205437 5.32207
RightShoulder  6.5152 10.7144 39.7004
RightArm  9.53726 15.5946 32.6293
RightForeArm  -6.6429 25.6577 5.84188
RightHand  -0.85826 1.19476 -15.2211
LeftUpLeg  -18.6624 2.35269 0.616159
LeftLeg  -1.06188 16.3733 -5.70401
LeftFoot  2.91916 -0.0262975 -0.0304359
LeftToes  1.00041e-010 1.90862e-010 2.54823e-011
68
root  37.819 38.4622 -2.10052 -168.111 -86.3693 164.117
RightUpLeg  18.657 -10.4082 -7.19216
RightLeg  16.2249 7.77718 2.9892
RightFoot  -19.43 0.055453 2.58777
RightToes  1.74622e-010 0 -3.6325e-017
Spine  3.63204 1.3325 7.80618
Spine1  13.7777 3.94844 -7.47697
HEad  -4.08565 2.80209 -3.53948
LeftShoulder1  8.95379 -12.7108 -48.203
LeftArm  -4.07012 18.638 -26.5083
LeftForeArm  22.0179 -19.2283 -4.16761
LeftHand  -0.244104 0.0205437 5.32207
RightShoulder  6.66691 10.754 40.5866
RightArm  10.0737 13.4048 32.4775
RightForeArm  -6.30167 26.3407 5.98296
RightHand  -0.83548 0.986143 -15.2905
LeftUpLeg  -19.5286 3.33143 -1.52855
LeftLeg  5.25176 16.1839 -3.22231
LeftFoot  6.44929 -0.714563 4.30825
LeftToes  1.00041e-010 1.90862e-010 2.54823e-011
69
root  36.0544 38.3519 -2.07706 -149.741 -85.6367 145.275
RightUpLeg  19.1964 -8.33772 -8.74676
RightLeg  20.6896 7.44186 2.81826
RightFoot  -17.5688 0.258705 7.22335
RightToes  1.74622e-010 0 -3.6325e-017
Spine  3.50766 1.4703 4.15574
Spine1  13.4629 3.50627 -5.9495
HEad  -3.30998 2.76483 -2.98325
LeftShoulder1  8.99229 -12.6105 -48.7147
LeftArm  -5.3795 18.8724 -25.846
LeftForeArm  24.11 -14.875 -5.12801
LeftHand  -0.244104 0.0205437 5.32207
RightShoulder  6.89517 10.768 42.0449
RightArm  10.371 10.0732 32.0249
RightForeArm  -5.65789 26.0245 5.85494
RightHand  -0.878398 1.21577 -15.521
LeftUpLeg  -20.0535 7.79958 -5.43913
LeftLeg  11.4062 10.7106 -0.297
LeftFoot  8.25821 -1.30197 7.28311
LeftToes  1.00041e-010 1.90862e-010 2.54823e-011
70
root  34.4089 38.4483 -2.02193 -137.623 -84.8101 132.878
RightUpLeg  16.568 -4.92143 -9.41709
RightLeg  28.918 5.35722 2.94969
RightFoot  -10.4888 -0.174564 11.8441
RightToes  1.74622e-010 0 -3.6325e-017
Spine  3.80201 1.38126 1.56354
Spine1  12.831 3.15936 -5.46443
HEad  -2.63096 2.58244 -2.43245
LeftShoulder1  9.02648 -12.5808 -48.991
LeftArm  -7.55482 18.5828 -25.2874
LeftForeArm  25.8707 -10.2612 -5.81142
LeftHand  -0.244104 0.0205437 5.32207
RightShoulder  7.04975 10.7463 43.1198
RightArm  10.0512 6.25975 32.636
RightForeArm  -5.15096 23.7577 5.44903
RightHand  -1.00879 1.9867 -15.9835
LeftUpLeg  -19.604 11.5893 -8.47444
LeftLeg  15.4325 6.23092 1.33603
LeftFoot  6.08789 -1.29274 8.16162
LeftToes  1.00041e-010 1.90862e-010 2.54823e-011
